<?xml version="1.0" encoding="UTF-8"?>
<svg version="1.1" xmlns="http://www.w3.org/2000/svg" width="64" height="64">
<path d="M0 0 C2.64 0 5.28 0 8 0 C8 1.65 8 3.3 8 5 C8.56962967 4.99333817 9.13925934 4.98667633 9.72615051 4.97981262 C15.64688481 4.91351881 21.56751393 4.86822433 27.48852539 4.83520508 C29.69918092 4.82010475 31.90980643 4.79962291 34.12036133 4.77368164 C37.29515993 4.73735345 40.46956297 4.72028616 43.64453125 4.70703125 C44.63524124 4.69154739 45.62595123 4.67606354 46.64668274 4.66011047 C47.56741074 4.65988388 48.48813873 4.65965729 49.43676758 4.65942383 C50.2472908 4.65276199 51.05781403 4.64610016 51.89289856 4.63923645 C54.55235162 5.09456988 55.44109374 5.81869453 57 8 C57.10830057 14.28143291 55.23708331 19.85605552 53.25 25.75 C52.89047241 26.84948975 52.89047241 26.84948975 52.52368164 27.97119141 C52.27352295 28.67679199 52.02336426 29.38239258 51.765625 30.109375 C51.54680664 30.73811523 51.32798828 31.36685547 51.10253906 32.01464844 C49.43780308 35.01235282 47.68896712 36.85792595 45 39 C42.21162027 39.44003142 40.05947947 39.59085432 37.29296875 39.48828125 C36.56757401 39.48120651 35.84217926 39.47413177 35.09480286 39.46684265 C32.79129297 39.43898406 30.49026749 39.37627191 28.1875 39.3125 C26.62047797 39.28740563 25.0534176 39.26459444 23.48632812 39.24414062 C19.65660344 39.18918681 15.82872203 39.10298226 12 39 C12 37.68 12 36.36 12 35 C12.9286084 34.97494385 13.8572168 34.9498877 14.81396484 34.92407227 C18.25435804 34.82902068 21.69457713 34.72978293 25.13476562 34.62768555 C26.62462641 34.58433411 28.11453695 34.54265916 29.60449219 34.50268555 C31.74429327 34.44498785 33.88384385 34.38129245 36.0234375 34.31640625 C37.31169434 34.27974854 38.59995117 34.24309082 39.92724609 34.20532227 C42.9127682 34.20469325 42.9127682 34.20469325 45 33 C45.93778821 30.91680856 45.93778821 30.91680856 46.7265625 28.37890625 C47.0359375 27.44369141 47.3453125 26.50847656 47.6640625 25.54492188 C48.13972656 24.06862305 48.13972656 24.06862305 48.625 22.5625 C48.94984375 21.58216797 49.2746875 20.60183594 49.609375 19.59179688 C51.32461729 14.88997045 51.32461729 14.88997045 52 10 C30.22 9.505 30.22 9.505 8 9 C8.33 19.89 8.66 30.78 9 42 C18.24 42 27.48 42 37 42 C37 43.32 37 44.64 37 46 C32.76417673 46.04938628 28.52850535 46.08571263 24.29248047 46.10986328 C22.85104453 46.11992963 21.40962905 46.1335838 19.96826172 46.15087891 C17.89806066 46.17510012 15.82812924 46.18647641 13.7578125 46.1953125 C11.88826904 46.21102295 11.88826904 46.21102295 9.98095703 46.22705078 C7 46 7 46 5 44 C4.82453518 40.98691049 4.76872555 38.06689546 4.8046875 35.0546875 C4.80893234 33.72716965 4.80893234 33.72716965 4.81326294 32.37283325 C4.8244776 29.54008588 4.8495843 26.70765216 4.875 23.875 C4.88502815 21.95703581 4.89415428 20.03906667 4.90234375 18.12109375 C4.92442111 13.41394124 4.95895955 8.70702384 5 4 C3.35 4 1.7 4 0 4 C0 2.68 0 1.36 0 0 Z " fill="#000000" transform="translate(3,5)"/>
<path d="M0 0 C3 0.25 3 0.25 5 2.25 C5.25 5.75 5.25 5.75 5 9.25 C3 11.25 3 11.25 0 11.5 C-3 11.25 -3 11.25 -5 9.25 C-5.25 5.75 -5.25 5.75 -5 2.25 C-3 0.25 -3 0.25 0 0 Z M-1 4.25 C-1 5.24 -1 6.23 -1 7.25 C-0.34 7.25 0.32 7.25 1 7.25 C1 6.26 1 5.27 1 4.25 C0.34 4.25 -0.32 4.25 -1 4.25 Z " fill="#000000" transform="translate(38,52.75)"/>
<path d="M0 0 C3 0.25 3 0.25 5 2.25 C5.25 5.75 5.25 5.75 5 9.25 C3 11.25 3 11.25 0 11.5 C-3 11.25 -3 11.25 -5 9.25 C-5.25 5.75 -5.25 5.75 -5 2.25 C-3 0.25 -3 0.25 0 0 Z M-1 4.25 C-1 5.24 -1 6.23 -1 7.25 C-0.34 7.25 0.32 7.25 1 7.25 C1 6.26 1 5.27 1 4.25 C0.34 4.25 -0.32 4.25 -1 4.25 Z " fill="#000000" transform="translate(13,52.75)"/>
</svg>
